<?xml version="1.0" encoding="UTF-8"?>
<svg width="24px" height="24px" viewBox="0 0 24 24" version="1.1" xmlns="http://www.w3.org/2000/svg" xmlns:xlink="http://www.w3.org/1999/xlink">
    <!-- Generator: Sketch 60 (88103) - https://sketch.com -->
    <title>Icon / Visibility / closed</title>
    <desc>Created with Sketch.</desc>
    <g id="Icon-/-Visibility-/-closed" stroke="none" stroke-width="1" fill="none" fill-rule="evenodd">
        <g id="password.hiden-balance.inline" transform="translate(1.000000, 2.000000)">
            <path d="M10.4,6.6 C8.8,6.9 7.6,8.2 7.5,9.9 L10.4,6.6 Z" id="Path" fill="#93979C"></path>
            <path d="M10.9,13.5 C11,13.5 11,13.6 10.9,13.5 C12.9,13.5 14.5,11.9 14.5,10 C14.5,9.8 14.5,9.7 14.5,9.5 L10.9,13.5 Z" id="Path" fill="#93979C"></path>
            <path d="M3.7,14.2 L4.7,13.1 C4.4,12.9 4.2,12.7 3.9,12.4 C3.2,11.7 2.5,11 1.9,10.2 C1.8,10.1 1.8,10.1 1.8,10 C1.8,9.9 1.9,9.9 1.9,9.8 C2.5,9 3.1,8.3 3.9,7.6 C6.1,5.5 8.5,4.5 11,4.5 C11.4,4.5 11.8,4.5 12.2,4.6 L13.4,3.3 C12.6,3.1 11.8,3 11,3 C8.1,3 5.4,4.2 2.9,6.5 C2.1,7.2 1.4,8 0.7,8.9 C0.5,9.1 0.4,9.4 0.2,9.6 L0,10 L0.3,10.4 C0.4,10.6 0.6,10.8 0.8,11.1 C1.4,12 2.2,12.8 2.9,13.5 C3.1,13.7 3.4,14 3.7,14.2 Z" id="Path" fill="#93979C"></path>
            <path d="M21.7,9.6 C21.6,9.4 21.4,9.2 21.2,8.9 C20.6,8 19.8,7.2 19.1,6.5 C18.7,6.2 18.4,5.8 18,5.6 L17,6.7 C17.4,7 17.7,7.3 18.1,7.6 C18.8,8.3 19.5,9 20.1,9.8 C20.2,9.9 20.2,9.9 20.2,10 C20.2,10.1 20.1,10.1 20.1,10.2 C19.5,11 18.9,11.7 18.1,12.4 C15.9,14.5 13.5,15.5 11,15.5 C10.4,15.5 9.9,15.4 9.3,15.3 L8.2,16.6 C9.1,16.8 10,17 11,17 C13.9,17 16.6,15.8 19.1,13.5 C19.9,12.8 20.6,12 21.2,11.1 C21.4,10.9 21.5,10.6 21.7,10.4 L22,10 L21.7,9.6 Z" id="Path" fill="#93979C"></path>
            <line x1="3.4" y1="18.3" x2="18.7" y2="0.9" id="Path" stroke="#93979C" stroke-width="1.5" stroke-linecap="round" stroke-linejoin="round"></line>
        </g>
    </g>
</svg>